<mxfile host="app.diagrams.net" modified="2024-07-19T18:32:51.894Z" agent="Mozilla/5.0 (Macintosh; Intel Mac OS X 10_15_7) AppleWebKit/537.36 (KHTML, like Gecko) Chrome/126.0.0.0 Safari/537.36" etag="LH3EuY3safH2av2nCvmF" version="24.6.5" type="github" pages="2">
  <diagram name="left" id="koKkgfx4V1DcDY4L06e6">
    <mxGraphModel dx="2367" dy="1105" grid="1" gridSize="1" guides="1" tooltips="1" connect="1" arrows="1" fold="1" page="1" pageScale="1" pageWidth="3150" pageHeight="2499" math="0" shadow="0">
      <root>
        <mxCell id="0" />
        <mxCell id="1" parent="0" />
        <mxCell id="xtGN7tZTvixt9cB9F57P-2" value="" style="rounded=0;whiteSpace=wrap;html=1;strokeColor=none;strokeWidth=0;fillColor=none;rotatable=0;cloneable=0;deletable=0;resizable=0;movable=0;editable=0;locked=1;connectable=0;" parent="1" vertex="1">
          <mxGeometry width="3150" height="2499" as="geometry" />
        </mxCell>
        <mxCell id="w0aLumGX9xAHh60q_JEq-9" value="" style="rounded=0;whiteSpace=wrap;html=1;strokeColor=none;fillColor=#9AC7BF;" parent="1" vertex="1">
          <mxGeometry x="2550" y="1628" width="40" height="768" as="geometry" />
        </mxCell>
        <mxCell id="w0aLumGX9xAHh60q_JEq-11" value="" style="rounded=0;whiteSpace=wrap;html=1;strokeWidth=0;fillColor=#d5e8d4;strokeColor=#82b366;" parent="1" vertex="1">
          <mxGeometry x="2950" y="20" width="200" height="256" as="geometry" />
        </mxCell>
        <mxCell id="FoiQY0BL_amfM0cv7Ukx-2" value="пол" parent="0" />
        <mxCell id="xtGN7tZTvixt9cB9F57P-3" value="" style="rounded=0;whiteSpace=wrap;html=1;strokeColor=none;fillColor=default;" parent="FoiQY0BL_amfM0cv7Ukx-2" vertex="1">
          <mxGeometry y="2396" width="3150" height="100" as="geometry" />
        </mxCell>
        <mxCell id="FoiQY0BL_amfM0cv7Ukx-23" value="" style="rounded=0;whiteSpace=wrap;html=1;strokeColor=none;fillColor=#4D4D4D;fontColor=#ffffff;" parent="FoiQY0BL_amfM0cv7Ukx-2" vertex="1">
          <mxGeometry y="2496" width="3150" height="3" as="geometry" />
        </mxCell>
        <mxCell id="_2o7Frp7gTv5wv5hf5Ww-18" value="" style="rounded=0;whiteSpace=wrap;html=1;strokeWidth=0;fillColor=#dae8fc;strokeColor=#6c8ebf;align=center;verticalAlign=middle;fontFamily=Helvetica;fontSize=12;fontColor=default;" parent="FoiQY0BL_amfM0cv7Ukx-2" vertex="1">
          <mxGeometry x="55" y="72" width="62" height="36" as="geometry" />
        </mxCell>
        <mxCell id="_2o7Frp7gTv5wv5hf5Ww-19" value="" style="rounded=0;whiteSpace=wrap;html=1;strokeWidth=0;fillColor=#dae8fc;strokeColor=#6c8ebf;align=center;verticalAlign=middle;fontFamily=Helvetica;fontSize=12;fontColor=default;" parent="FoiQY0BL_amfM0cv7Ukx-2" vertex="1">
          <mxGeometry x="51" width="62" height="36" as="geometry" />
        </mxCell>
        <mxCell id="FoiQY0BL_amfM0cv7Ukx-28" value="верхний ряд" parent="0" />
        <mxCell id="CjcA40CV85_2sZ5aNf5o-3" value="" style="group" parent="FoiQY0BL_amfM0cv7Ukx-28" vertex="1" connectable="0">
          <mxGeometry x="450" y="276" width="300" height="768" as="geometry" />
        </mxCell>
        <mxCell id="CjcA40CV85_2sZ5aNf5o-1" value="" style="rounded=0;whiteSpace=wrap;html=1;strokeColor=#82b366;strokeWidth=0;fillColor=#d5e8d4;" parent="CjcA40CV85_2sZ5aNf5o-3" vertex="1">
          <mxGeometry width="300" height="768" as="geometry" />
        </mxCell>
        <mxCell id="CjcA40CV85_2sZ5aNf5o-2" value="" style="rounded=0;whiteSpace=wrap;html=1;strokeWidth=0;" parent="CjcA40CV85_2sZ5aNf5o-3" vertex="1">
          <mxGeometry x="16" y="16" width="268" height="736" as="geometry" />
        </mxCell>
        <mxCell id="CjcA40CV85_2sZ5aNf5o-6" value="" style="group" parent="FoiQY0BL_amfM0cv7Ukx-28" vertex="1" connectable="0">
          <mxGeometry x="750" y="276" width="600" height="384" as="geometry" />
        </mxCell>
        <mxCell id="CjcA40CV85_2sZ5aNf5o-4" value="" style="rounded=0;whiteSpace=wrap;html=1;strokeWidth=0;fillColor=#d5e8d4;strokeColor=#82b366;" parent="CjcA40CV85_2sZ5aNf5o-6" vertex="1">
          <mxGeometry width="600" height="384" as="geometry" />
        </mxCell>
        <mxCell id="CjcA40CV85_2sZ5aNf5o-5" value="" style="rounded=0;whiteSpace=wrap;html=1;strokeWidth=0;" parent="CjcA40CV85_2sZ5aNf5o-6" vertex="1">
          <mxGeometry x="16" y="16" width="568" height="352" as="geometry" />
        </mxCell>
        <mxCell id="VPxmGFacgetjMYWHdtx3-2" value="" style="rounded=0;whiteSpace=wrap;html=1;fillColor=#f8cecc;strokeColor=#b85450;strokeWidth=0;align=center;verticalAlign=middle;fontFamily=Helvetica;fontSize=12;fontColor=default;" parent="CjcA40CV85_2sZ5aNf5o-6" vertex="1">
          <mxGeometry x="484" y="36" width="80" height="80" as="geometry" />
        </mxCell>
        <mxCell id="CjcA40CV85_2sZ5aNf5o-7" value="" style="group" parent="FoiQY0BL_amfM0cv7Ukx-28" vertex="1" connectable="0">
          <mxGeometry x="1350" y="276" width="1412" height="2223" as="geometry" />
        </mxCell>
        <mxCell id="CjcA40CV85_2sZ5aNf5o-8" value="" style="rounded=0;whiteSpace=wrap;html=1;strokeColor=#82b366;fillColor=#d5e8d4;strokeWidth=0;" parent="CjcA40CV85_2sZ5aNf5o-7" vertex="1">
          <mxGeometry width="800" height="768" as="geometry" />
        </mxCell>
        <mxCell id="CjcA40CV85_2sZ5aNf5o-9" value="" style="rounded=0;whiteSpace=wrap;html=1;fillColor=default;strokeColor=none;" parent="CjcA40CV85_2sZ5aNf5o-7" vertex="1">
          <mxGeometry x="16.00333333333333" y="16" width="768" height="736" as="geometry" />
        </mxCell>
        <mxCell id="CjcA40CV85_2sZ5aNf5o-10" value="" style="group" parent="CjcA40CV85_2sZ5aNf5o-7" vertex="1" connectable="0">
          <mxGeometry x="800" width="612" height="2223" as="geometry" />
        </mxCell>
        <mxCell id="CjcA40CV85_2sZ5aNf5o-11" value="" style="rounded=0;whiteSpace=wrap;html=1;strokeColor=#82b366;fillColor=#d5e8d4;strokeWidth=0;" parent="CjcA40CV85_2sZ5aNf5o-10" vertex="1">
          <mxGeometry width="600" height="768" as="geometry" />
        </mxCell>
        <mxCell id="CjcA40CV85_2sZ5aNf5o-12" value="" style="rounded=0;whiteSpace=wrap;html=1;fillColor=default;strokeColor=none;" parent="CjcA40CV85_2sZ5aNf5o-10" vertex="1">
          <mxGeometry x="16" y="16" width="568" height="736" as="geometry" />
        </mxCell>
        <mxCell id="w0aLumGX9xAHh60q_JEq-7" value="" style="rounded=0;whiteSpace=wrap;html=1;strokeWidth=0;fillColor=#d5e8d4;strokeColor=#82b366;" parent="FoiQY0BL_amfM0cv7Ukx-28" vertex="1">
          <mxGeometry x="2800" y="276" width="350" height="768" as="geometry" />
        </mxCell>
        <mxCell id="w0aLumGX9xAHh60q_JEq-8" value="" style="rounded=0;whiteSpace=wrap;html=1;strokeWidth=0;fillColor=#ffe6cc;strokeColor=#d79b00;" parent="FoiQY0BL_amfM0cv7Ukx-28" vertex="1">
          <mxGeometry x="2782" y="276" width="18" height="768" as="geometry" />
        </mxCell>
        <mxCell id="FoiQY0BL_amfM0cv7Ukx-5" value="" style="rounded=0;whiteSpace=wrap;html=1;strokeColor=none;fillColor=#9AC7BF;" parent="FoiQY0BL_amfM0cv7Ukx-28" vertex="1">
          <mxGeometry x="2750" y="276" width="32" height="768" as="geometry" />
        </mxCell>
        <mxCell id="CjcA40CV85_2sZ5aNf5o-13" value="антресоль" parent="0" />
        <mxCell id="CjcA40CV85_2sZ5aNf5o-18" value="" style="group" parent="CjcA40CV85_2sZ5aNf5o-13" vertex="1" connectable="0">
          <mxGeometry x="750" y="20" width="600" height="256" as="geometry" />
        </mxCell>
        <mxCell id="CjcA40CV85_2sZ5aNf5o-19" value="" style="group" parent="CjcA40CV85_2sZ5aNf5o-18" vertex="1" connectable="0">
          <mxGeometry width="600" height="256" as="geometry" />
        </mxCell>
        <mxCell id="CjcA40CV85_2sZ5aNf5o-20" value="" style="rounded=0;whiteSpace=wrap;html=1;strokeWidth=0;fillColor=#d5e8d4;strokeColor=#82b366;" parent="CjcA40CV85_2sZ5aNf5o-19" vertex="1">
          <mxGeometry width="600" height="256" as="geometry" />
        </mxCell>
        <mxCell id="CjcA40CV85_2sZ5aNf5o-21" value="" style="rounded=0;whiteSpace=wrap;html=1;strokeWidth=0;" parent="CjcA40CV85_2sZ5aNf5o-19" vertex="1">
          <mxGeometry x="16" y="16" width="568" height="224" as="geometry" />
        </mxCell>
        <mxCell id="CjcA40CV85_2sZ5aNf5o-28" value="" style="group" parent="CjcA40CV85_2sZ5aNf5o-13" vertex="1" connectable="0">
          <mxGeometry x="1350" y="20" width="800" height="292" as="geometry" />
        </mxCell>
        <mxCell id="CjcA40CV85_2sZ5aNf5o-26" value="" style="rounded=0;whiteSpace=wrap;html=1;strokeWidth=0;fillColor=#d5e8d4;strokeColor=#82b366;" parent="CjcA40CV85_2sZ5aNf5o-28" vertex="1">
          <mxGeometry width="800" height="256" as="geometry" />
        </mxCell>
        <mxCell id="CjcA40CV85_2sZ5aNf5o-27" value="" style="rounded=0;whiteSpace=wrap;html=1;strokeWidth=0;" parent="CjcA40CV85_2sZ5aNf5o-28" vertex="1">
          <mxGeometry x="16" y="16" width="768" height="224" as="geometry" />
        </mxCell>
        <mxCell id="CjcA40CV85_2sZ5aNf5o-16" value="" style="group" parent="CjcA40CV85_2sZ5aNf5o-13" vertex="1" connectable="0">
          <mxGeometry y="20" width="3250" height="2348" as="geometry" />
        </mxCell>
        <mxCell id="CjcA40CV85_2sZ5aNf5o-17" value="" style="group" parent="CjcA40CV85_2sZ5aNf5o-16" vertex="1" connectable="0">
          <mxGeometry width="3250" height="2348" as="geometry" />
        </mxCell>
        <mxCell id="CjcA40CV85_2sZ5aNf5o-14" value="" style="rounded=0;whiteSpace=wrap;html=1;strokeWidth=0;fillColor=#d5e8d4;strokeColor=#82b366;" parent="CjcA40CV85_2sZ5aNf5o-17" vertex="1">
          <mxGeometry width="750" height="256" as="geometry" />
        </mxCell>
        <mxCell id="CjcA40CV85_2sZ5aNf5o-15" value="" style="rounded=0;whiteSpace=wrap;html=1;strokeWidth=0;" parent="CjcA40CV85_2sZ5aNf5o-17" vertex="1">
          <mxGeometry x="15" y="16" width="719" height="224" as="geometry" />
        </mxCell>
        <mxCell id="VPxmGFacgetjMYWHdtx3-1" value="" style="rounded=0;whiteSpace=wrap;html=1;fillColor=#f8cecc;strokeColor=#b85450;strokeWidth=0;" parent="CjcA40CV85_2sZ5aNf5o-17" vertex="1">
          <mxGeometry x="450" y="142" width="80" height="80" as="geometry" />
        </mxCell>
        <mxCell id="VPxmGFacgetjMYWHdtx3-20" value="2660" style="rounded=0;whiteSpace=wrap;html=1;strokeWidth=0;fillColor=#FF0000;" parent="CjcA40CV85_2sZ5aNf5o-17" vertex="1">
          <mxGeometry x="490" y="181" width="2660" height="1" as="geometry" />
        </mxCell>
        <mxCell id="CjcA40CV85_2sZ5aNf5o-30" value="" style="rounded=0;whiteSpace=wrap;html=1;strokeWidth=0;fillColor=#d5e8d4;strokeColor=#82b366;" parent="CjcA40CV85_2sZ5aNf5o-13" vertex="1">
          <mxGeometry x="2150" y="20" width="800" height="256" as="geometry" />
        </mxCell>
        <mxCell id="CjcA40CV85_2sZ5aNf5o-29" value="" style="group" parent="CjcA40CV85_2sZ5aNf5o-13" vertex="1" connectable="0">
          <mxGeometry x="2150" y="20" width="998" height="402" as="geometry" />
        </mxCell>
        <mxCell id="CjcA40CV85_2sZ5aNf5o-31" value="" style="rounded=0;whiteSpace=wrap;html=1;strokeWidth=0;" parent="CjcA40CV85_2sZ5aNf5o-29" vertex="1">
          <mxGeometry x="16" y="16" width="768" height="224" as="geometry" />
        </mxCell>
        <mxCell id="0hOKsh7049nC19befjA3-3" value="" style="ellipse;whiteSpace=wrap;html=1;aspect=fixed;strokeWidth=0;fillColor=#CCCCCC;fontColor=#333333;strokeColor=#666666;" parent="CjcA40CV85_2sZ5aNf5o-29" vertex="1">
          <mxGeometry x="327" y="134" width="100" height="100" as="geometry" />
        </mxCell>
        <mxCell id="FoiQY0BL_amfM0cv7Ukx-4" value="нижний ряд" parent="0" />
        <mxCell id="FoiQY0BL_amfM0cv7Ukx-3" value="" style="rounded=0;whiteSpace=wrap;html=1;strokeColor=none;fillColor=#d5e8d4;" parent="FoiQY0BL_amfM0cv7Ukx-4" vertex="1">
          <mxGeometry x="2590" y="1628" width="560" height="768" as="geometry" />
        </mxCell>
        <mxCell id="FoiQY0BL_amfM0cv7Ukx-8" value="" style="group" parent="FoiQY0BL_amfM0cv7Ukx-4" vertex="1" connectable="0">
          <mxGeometry x="2150" y="1628" width="1011" height="807" as="geometry" />
        </mxCell>
        <mxCell id="FoiQY0BL_amfM0cv7Ukx-6" value="" style="rounded=0;whiteSpace=wrap;html=1;strokeColor=#82b366;fillColor=#d5e8d4;strokeWidth=0;" parent="FoiQY0BL_amfM0cv7Ukx-8" vertex="1">
          <mxGeometry width="400" height="768" as="geometry" />
        </mxCell>
        <mxCell id="FoiQY0BL_amfM0cv7Ukx-7" value="" style="rounded=0;whiteSpace=wrap;html=1;fillColor=default;strokeColor=none;" parent="FoiQY0BL_amfM0cv7Ukx-8" vertex="1">
          <mxGeometry x="16" width="368" height="752" as="geometry" />
        </mxCell>
        <mxCell id="rTMTSSueP036_edtJL5N-4" value="" style="rounded=0;whiteSpace=wrap;html=1;strokeWidth=0;fillColor=#f5f5f5;fontColor=#333333;strokeColor=#666666;" parent="FoiQY0BL_amfM0cv7Ukx-8" vertex="1">
          <mxGeometry x="32" y="102" width="335" height="610" as="geometry" />
        </mxCell>
        <mxCell id="FoiQY0BL_amfM0cv7Ukx-12" value="" style="group" parent="FoiQY0BL_amfM0cv7Ukx-4" vertex="1" connectable="0">
          <mxGeometry x="750" y="1618" width="621" height="870" as="geometry" />
        </mxCell>
        <mxCell id="FoiQY0BL_amfM0cv7Ukx-13" value="" style="rounded=0;whiteSpace=wrap;html=1;strokeColor=#82b366;fillColor=#d5e8d4;strokeWidth=0;" parent="FoiQY0BL_amfM0cv7Ukx-12" vertex="1">
          <mxGeometry y="10" width="600" height="768" as="geometry" />
        </mxCell>
        <mxCell id="FoiQY0BL_amfM0cv7Ukx-14" value="" style="rounded=0;whiteSpace=wrap;html=1;fillColor=default;strokeColor=none;" parent="FoiQY0BL_amfM0cv7Ukx-12" vertex="1">
          <mxGeometry x="16" y="10" width="568" height="752" as="geometry" />
        </mxCell>
        <mxCell id="FoiQY0BL_amfM0cv7Ukx-15" value="" style="group" parent="FoiQY0BL_amfM0cv7Ukx-4" vertex="1" connectable="0">
          <mxGeometry x="450" y="1618" width="390" height="768" as="geometry" />
        </mxCell>
        <mxCell id="FoiQY0BL_amfM0cv7Ukx-16" value="" style="rounded=0;whiteSpace=wrap;html=1;strokeColor=#82b366;fillColor=#d5e8d4;strokeWidth=0;" parent="FoiQY0BL_amfM0cv7Ukx-15" vertex="1">
          <mxGeometry y="10" width="300" height="768" as="geometry" />
        </mxCell>
        <mxCell id="FoiQY0BL_amfM0cv7Ukx-17" value="" style="rounded=0;whiteSpace=wrap;html=1;fillColor=default;strokeColor=none;" parent="FoiQY0BL_amfM0cv7Ukx-15" vertex="1">
          <mxGeometry x="16" y="10" width="268" height="752" as="geometry" />
        </mxCell>
        <mxCell id="FoiQY0BL_amfM0cv7Ukx-22" value="" style="group" parent="FoiQY0BL_amfM0cv7Ukx-4" vertex="1" connectable="0">
          <mxGeometry x="50" y="276" width="3100" height="2223" as="geometry" />
        </mxCell>
        <mxCell id="FoiQY0BL_amfM0cv7Ukx-19" value="" style="rounded=0;whiteSpace=wrap;html=1;strokeColor=#82b366;fillColor=#d5e8d4;strokeWidth=0;" parent="FoiQY0BL_amfM0cv7Ukx-22" vertex="1">
          <mxGeometry width="400" height="2120" as="geometry" />
        </mxCell>
        <mxCell id="FoiQY0BL_amfM0cv7Ukx-21" value="" style="rounded=0;whiteSpace=wrap;html=1;strokeColor=none;" parent="FoiQY0BL_amfM0cv7Ukx-22" vertex="1">
          <mxGeometry x="16" y="16.079102072642776" width="368" height="2088" as="geometry" />
        </mxCell>
        <mxCell id="Xp1xwoGzoSQ8W8K1QQJ6-2" value="" style="rounded=0;whiteSpace=wrap;html=1;strokeWidth=0;fillColor=#f8cecc;strokeColor=#b85450;" parent="FoiQY0BL_amfM0cv7Ukx-22" vertex="1">
          <mxGeometry x="134" y="1134" width="150" height="80" as="geometry" />
        </mxCell>
        <mxCell id="Pu72MlAG8UcR5RmYyR8u-3" value="" style="rounded=0;whiteSpace=wrap;html=1;strokeWidth=0;" parent="FoiQY0BL_amfM0cv7Ukx-22" vertex="1">
          <mxGeometry x="134" y="1174" width="75" height="40" as="geometry" />
        </mxCell>
        <mxCell id="Pu72MlAG8UcR5RmYyR8u-2" value="1049" style="rounded=0;whiteSpace=wrap;html=1;strokeWidth=0;fillColor=#FF0000;" parent="FoiQY0BL_amfM0cv7Ukx-22" vertex="1">
          <mxGeometry x="208" y="1174" width="1" height="1049" as="geometry" />
        </mxCell>
        <mxCell id="rTMTSSueP036_edtJL5N-8" value="533" style="rounded=0;whiteSpace=wrap;html=1;strokeWidth=0;fillColor=#FF0000;" parent="FoiQY0BL_amfM0cv7Ukx-22" vertex="1">
          <mxGeometry x="2567" y="949" width="533" height="1" as="geometry" />
        </mxCell>
        <mxCell id="rTMTSSueP036_edtJL5N-9" value="" style="rounded=0;whiteSpace=wrap;html=1;strokeWidth=0;" parent="FoiQY0BL_amfM0cv7Ukx-22" vertex="1">
          <mxGeometry x="2467" y="1640" width="633" height="60" as="geometry" />
        </mxCell>
        <mxCell id="FoiQY0BL_amfM0cv7Ukx-24" value="" style="group" parent="FoiQY0BL_amfM0cv7Ukx-4" vertex="1" connectable="0">
          <mxGeometry x="1350" y="1628" width="975" height="788" as="geometry" />
        </mxCell>
        <mxCell id="FoiQY0BL_amfM0cv7Ukx-25" value="" style="rounded=0;whiteSpace=wrap;html=1;strokeColor=#82b366;fillColor=#d5e8d4;strokeWidth=0;" parent="FoiQY0BL_amfM0cv7Ukx-24" vertex="1">
          <mxGeometry width="800" height="768" as="geometry" />
        </mxCell>
        <mxCell id="FoiQY0BL_amfM0cv7Ukx-26" value="" style="rounded=0;whiteSpace=wrap;html=1;fillColor=default;strokeColor=none;" parent="FoiQY0BL_amfM0cv7Ukx-24" vertex="1">
          <mxGeometry x="16" width="768" height="752" as="geometry" />
        </mxCell>
        <mxCell id="_2o7Frp7gTv5wv5hf5Ww-23" value="" style="rounded=0;whiteSpace=wrap;html=1;strokeWidth=0;fillColor=#8C4800;strokeColor=#d79b00;" parent="FoiQY0BL_amfM0cv7Ukx-4" vertex="1">
          <mxGeometry x="450" y="1590" width="2700" height="38" as="geometry" />
        </mxCell>
        <mxCell id="CjcA40CV85_2sZ5aNf5o-33" value="котел" parent="0" />
        <mxCell id="_2o7Frp7gTv5wv5hf5Ww-1" value="" style="rounded=0;whiteSpace=wrap;html=1;strokeWidth=0;fillColor=#CCCCCC;resizable=1;editable=1;movable=1;rotatable=0;deletable=0;locked=0;connectable=1;cloneable=0;" parent="CjcA40CV85_2sZ5aNf5o-33" vertex="1">
          <mxGeometry x="2247" y="301" width="405" height="718" as="geometry" />
        </mxCell>
        <mxCell id="_2o7Frp7gTv5wv5hf5Ww-4" value="" style="rounded=0;whiteSpace=wrap;html=1;strokeWidth=0;fillColor=#CCCCCC;" parent="CjcA40CV85_2sZ5aNf5o-33" vertex="1">
          <mxGeometry x="2409" y="58" width="80" height="253" as="geometry" />
        </mxCell>
        <mxCell id="_2o7Frp7gTv5wv5hf5Ww-7" value="" style="rounded=0;whiteSpace=wrap;html=1;strokeWidth=0;fillColor=#CCCCCC;" parent="CjcA40CV85_2sZ5aNf5o-33" vertex="1">
          <mxGeometry y="45" width="2354" height="80" as="geometry" />
        </mxCell>
        <mxCell id="_2o7Frp7gTv5wv5hf5Ww-6" value="" style="rounded=0;whiteSpace=wrap;html=1;strokeWidth=0;fillColor=#CCCCCC;" parent="CjcA40CV85_2sZ5aNf5o-33" vertex="1">
          <mxGeometry x="2282" y="1019" width="335" height="1480" as="geometry" />
        </mxCell>
        <mxCell id="CjcA40CV85_2sZ5aNf5o-32" value="" style="ellipse;whiteSpace=wrap;html=1;aspect=fixed;strokeWidth=0;fillColor=#CCCCCC;strokeColor=#23445d;" parent="CjcA40CV85_2sZ5aNf5o-33" vertex="1">
          <mxGeometry x="2489" y="57" width="80" height="80" as="geometry" />
        </mxCell>
        <mxCell id="w0aLumGX9xAHh60q_JEq-12" value="" style="rounded=0;whiteSpace=wrap;html=1;fillColor=#ffe6cc;strokeColor=#d79b00;strokeWidth=0;" parent="CjcA40CV85_2sZ5aNf5o-33" vertex="1">
          <mxGeometry x="2151" y="18" width="400" height="256" as="geometry" />
        </mxCell>
        <mxCell id="_2o7Frp7gTv5wv5hf5Ww-8" value="" style="rounded=0;whiteSpace=wrap;html=1;fillColor=#CCCCCC;strokeWidth=0;" parent="CjcA40CV85_2sZ5aNf5o-33" vertex="1">
          <mxGeometry x="2274" y="45" width="80" height="266" as="geometry" />
        </mxCell>
        <mxCell id="rTMTSSueP036_edtJL5N-7" value="1455" style="rounded=0;whiteSpace=wrap;html=1;strokeWidth=0;fillColor=#FF0000;" parent="CjcA40CV85_2sZ5aNf5o-33" vertex="1">
          <mxGeometry x="2717" y="1044" width="1" height="1455" as="geometry" />
        </mxCell>
        <mxCell id="JikWeHHoJyGs9IaLiXKI-1" value="498" style="rounded=0;whiteSpace=wrap;html=1;strokeWidth=0;fillColor=#FF0000;" vertex="1" parent="CjcA40CV85_2sZ5aNf5o-33">
          <mxGeometry x="2652" y="309" width="498" height="1" as="geometry" />
        </mxCell>
        <mxCell id="JikWeHHoJyGs9IaLiXKI-2" value="1480" style="rounded=0;whiteSpace=wrap;html=1;strokeWidth=0;fillColor=#FF0000;" vertex="1" parent="CjcA40CV85_2sZ5aNf5o-33">
          <mxGeometry x="2633" y="1019" width="1" height="1480" as="geometry" />
        </mxCell>
        <mxCell id="_2o7Frp7gTv5wv5hf5Ww-35" value="духовка" parent="0" />
        <mxCell id="_2o7Frp7gTv5wv5hf5Ww-29" value="" style="group" parent="_2o7Frp7gTv5wv5hf5Ww-35" vertex="1" connectable="0">
          <mxGeometry x="770" y="1644" width="560" height="595" as="geometry" />
        </mxCell>
        <mxCell id="_2o7Frp7gTv5wv5hf5Ww-27" value="" style="rounded=0;whiteSpace=wrap;html=1;strokeWidth=0;perimeterSpacing=0;" parent="_2o7Frp7gTv5wv5hf5Ww-29" vertex="1">
          <mxGeometry y="-10" width="560" height="595" as="geometry" />
        </mxCell>
        <mxCell id="_2o7Frp7gTv5wv5hf5Ww-28" value="" style="rounded=0;whiteSpace=wrap;html=1;strokeWidth=0;perimeterSpacing=0;" parent="_2o7Frp7gTv5wv5hf5Ww-29" vertex="1">
          <mxGeometry y="52" width="560" height="533" as="geometry" />
        </mxCell>
        <mxCell id="_2o7Frp7gTv5wv5hf5Ww-32" value="" style="endArrow=classicThin;startArrow=classicThin;html=1;rounded=0;entryX=0.016;entryY=0;entryDx=0;entryDy=0;entryPerimeter=0;exitX=0.015;exitY=0;exitDx=0;exitDy=0;exitPerimeter=0;startFill=1;endFill=1;strokeWidth=0;" parent="_2o7Frp7gTv5wv5hf5Ww-29" source="_2o7Frp7gTv5wv5hf5Ww-28" target="_2o7Frp7gTv5wv5hf5Ww-27" edge="1">
          <mxGeometry width="50" height="50" relative="1" as="geometry">
            <mxPoint x="9" y="49" as="sourcePoint" />
            <mxPoint x="59" y="-1" as="targetPoint" />
          </mxGeometry>
        </mxCell>
        <mxCell id="_2o7Frp7gTv5wv5hf5Ww-34" value="57" style="edgeLabel;html=1;align=center;verticalAlign=middle;resizable=0;points=[];" parent="_2o7Frp7gTv5wv5hf5Ww-32" vertex="1" connectable="0">
          <mxGeometry x="-0.015" y="-1" relative="1" as="geometry">
            <mxPoint as="offset" />
          </mxGeometry>
        </mxCell>
        <mxCell id="_2o7Frp7gTv5wv5hf5Ww-36" value="" style="rounded=0;whiteSpace=wrap;html=1;strokeWidth=0;" parent="_2o7Frp7gTv5wv5hf5Ww-35" vertex="1">
          <mxGeometry x="798" y="1590" width="500" height="50" as="geometry" />
        </mxCell>
        <mxCell id="_2o7Frp7gTv5wv5hf5Ww-13" value="газ" parent="0" />
        <mxCell id="_2o7Frp7gTv5wv5hf5Ww-14" value="" style="rounded=0;whiteSpace=wrap;html=1;strokeWidth=0;fillColor=#dae8fc;strokeColor=#6c8ebf;" parent="_2o7Frp7gTv5wv5hf5Ww-13" vertex="1">
          <mxGeometry x="60" width="42" height="2499" as="geometry" />
        </mxCell>
        <mxCell id="_2o7Frp7gTv5wv5hf5Ww-15" value="" style="rounded=0;whiteSpace=wrap;html=1;strokeWidth=0;fillColor=#dae8fc;strokeColor=#6c8ebf;align=center;verticalAlign=middle;fontFamily=Helvetica;fontSize=12;fontColor=default;" parent="_2o7Frp7gTv5wv5hf5Ww-13" vertex="1">
          <mxGeometry x="51" y="2422" width="62" height="77" as="geometry" />
        </mxCell>
        <mxCell id="_2o7Frp7gTv5wv5hf5Ww-20" value="" style="rounded=0;whiteSpace=wrap;html=1;strokeWidth=0;strokeColor=default;fillColor=#D4E1F5;" parent="_2o7Frp7gTv5wv5hf5Ww-13" vertex="1">
          <mxGeometry x="102" y="1648" width="2078" height="20" as="geometry" />
        </mxCell>
        <mxCell id="_cgxPpLW0loe5eL5B5di-2" value="20" style="rounded=0;whiteSpace=wrap;html=1;strokeWidth=0;fillColor=#FF0000;" parent="_2o7Frp7gTv5wv5hf5Ww-13" vertex="1">
          <mxGeometry x="478" y="1628" width="1" height="20" as="geometry" />
        </mxCell>
        <mxCell id="_cgxPpLW0loe5eL5B5di-3" value="268" style="rounded=0;whiteSpace=wrap;html=1;fillColor=#FF0000;strokeWidth=0;" parent="_2o7Frp7gTv5wv5hf5Ww-13" vertex="1">
          <mxGeometry x="466" y="1675" width="268" height="1" as="geometry" />
        </mxCell>
        <mxCell id="_cgxPpLW0loe5eL5B5di-5" value="984" style="rounded=0;whiteSpace=wrap;html=1;strokeWidth=0;fillColor=#FF0000;" parent="_2o7Frp7gTv5wv5hf5Ww-13" vertex="1">
          <mxGeometry x="2166" y="1674" width="984" height="1" as="geometry" />
        </mxCell>
        <mxCell id="_cgxPpLW0loe5eL5B5di-6" value="2416" style="rounded=0;whiteSpace=wrap;html=1;strokeWidth=0;fillColor=#FF0000;" parent="_2o7Frp7gTv5wv5hf5Ww-13" vertex="1">
          <mxGeometry x="734" y="1689" width="2416" height="1" as="geometry" />
        </mxCell>
        <mxCell id="w0aLumGX9xAHh60q_JEq-1" value="871" style="rounded=0;whiteSpace=wrap;html=1;strokeWidth=0;fillColor=#FF0000;" parent="_2o7Frp7gTv5wv5hf5Ww-13" vertex="1">
          <mxGeometry x="556" y="1628" width="1" height="871" as="geometry" />
        </mxCell>
        <mxCell id="w0aLumGX9xAHh60q_JEq-3" value="68" style="rounded=0;whiteSpace=wrap;html=1;strokeWidth=0;fillColor=#FF0000;" parent="_2o7Frp7gTv5wv5hf5Ww-13" vertex="1">
          <mxGeometry x="791" y="1628" width="1" height="68" as="geometry" />
        </mxCell>
        <mxCell id="w0aLumGX9xAHh60q_JEq-4" value="831" style="rounded=0;whiteSpace=wrap;html=1;strokeWidth=0;fillColor=#FF0000;" parent="_2o7Frp7gTv5wv5hf5Ww-13" vertex="1">
          <mxGeometry x="576" y="1668" width="1" height="831" as="geometry" />
        </mxCell>
        <mxCell id="EK9v8JkH4PZetZc3i3iM-2" value="электрика" parent="0" />
        <mxCell id="EK9v8JkH4PZetZc3i3iM-1" value="" style="rounded=0;whiteSpace=wrap;html=1;strokeWidth=0;fillColor=#f8cecc;strokeColor=#b85450;flipH=1;flipV=1;editable=1;movable=1;resizable=1;rotatable=1;deletable=1;locked=0;connectable=1;" parent="EK9v8JkH4PZetZc3i3iM-2" vertex="1">
          <mxGeometry x="1930" y="1410" width="220" height="80" as="geometry" />
        </mxCell>
        <mxCell id="3TbDNI4eDMKCHhWO4izm-15" value="" style="rounded=0;whiteSpace=wrap;html=1;fillColor=#f8cecc;strokeColor=#b85450;strokeWidth=0;movable=1;resizable=1;editable=1;rotatable=1;deletable=1;locked=0;connectable=1;" parent="EK9v8JkH4PZetZc3i3iM-2" vertex="1">
          <mxGeometry x="2900" y="1410" width="150" height="80" as="geometry" />
        </mxCell>
        <mxCell id="3TbDNI4eDMKCHhWO4izm-20" value="" style="rounded=0;whiteSpace=wrap;html=1;fillColor=#f8cecc;strokeColor=#b85450;strokeWidth=0;resizable=0;movable=0;deletable=0;" parent="EK9v8JkH4PZetZc3i3iM-2" vertex="1">
          <mxGeometry x="975" y="2406" width="150" height="80" as="geometry" />
        </mxCell>
        <mxCell id="VPxmGFacgetjMYWHdtx3-17" value="175" style="rounded=0;whiteSpace=wrap;html=1;strokeWidth=0;fillColor=#FF0000;movable=1;resizable=1;" parent="EK9v8JkH4PZetZc3i3iM-2" vertex="1">
          <mxGeometry x="2975" y="1462" width="175" height="1" as="geometry" />
        </mxCell>
        <mxCell id="3TbDNI4eDMKCHhWO4izm-1" value="" style="rounded=0;whiteSpace=wrap;html=1;strokeWidth=0;fillColor=#f8cecc;strokeColor=#b85450;" parent="EK9v8JkH4PZetZc3i3iM-2" vertex="1">
          <mxGeometry x="525" y="1410" width="150" height="80" as="geometry" />
        </mxCell>
        <mxCell id="VPxmGFacgetjMYWHdtx3-12" value="1049" style="rounded=0;whiteSpace=wrap;html=1;strokeWidth=0;fillColor=#FF0000;" parent="EK9v8JkH4PZetZc3i3iM-2" vertex="1">
          <mxGeometry x="599" y="1450" width="1" height="1049" as="geometry" />
        </mxCell>
        <mxCell id="VPxmGFacgetjMYWHdtx3-11" value="2550" style="rounded=0;whiteSpace=wrap;html=1;strokeWidth=0;fillColor=#FF0000;movable=0;resizable=1;" parent="EK9v8JkH4PZetZc3i3iM-2" vertex="1">
          <mxGeometry x="600" y="1449" width="2550" height="1" as="geometry" />
        </mxCell>
        <mxCell id="VPxmGFacgetjMYWHdtx3-16" value="1110" style="rounded=0;whiteSpace=wrap;html=1;strokeWidth=0;fillColor=#FF0000;movable=1;resizable=1;" parent="EK9v8JkH4PZetZc3i3iM-2" vertex="1">
          <mxGeometry x="2040" y="1456" width="1110" height="1" as="geometry" />
        </mxCell>
        <mxCell id="LF6Q0ECKYghXEC3hOfA7-1" value="2100" style="rounded=0;whiteSpace=wrap;html=1;strokeWidth=0;fillColor=#FF0000;" parent="EK9v8JkH4PZetZc3i3iM-2" vertex="1">
          <mxGeometry x="1050" y="2444" width="2100" height="1" as="geometry" />
        </mxCell>
        <mxCell id="LF6Q0ECKYghXEC3hOfA7-4" value="1876" style="rounded=0;whiteSpace=wrap;html=1;strokeWidth=0;fillColor=#FF0000;" parent="EK9v8JkH4PZetZc3i3iM-2" vertex="1">
          <mxGeometry x="1274" y="352" width="1876" height="1" as="geometry" />
        </mxCell>
        <mxCell id="Pu72MlAG8UcR5RmYyR8u-4" value="2891" style="rounded=0;whiteSpace=wrap;html=1;strokeWidth=0;strokeColor=#FF0000;fillColor=#FF0000;" parent="EK9v8JkH4PZetZc3i3iM-2" vertex="1">
          <mxGeometry x="259" y="1449" width="2891" height="1" as="geometry" />
        </mxCell>
        <mxCell id="LF6Q0ECKYghXEC3hOfA7-5" value="352" style="rounded=0;whiteSpace=wrap;html=1;strokeWidth=0;fillColor=#FF0000;" parent="EK9v8JkH4PZetZc3i3iM-2" vertex="1">
          <mxGeometry x="1273" width="1" height="352" as="geometry" />
        </mxCell>
        <mxCell id="0hOKsh7049nC19befjA3-6" value="" style="rounded=0;whiteSpace=wrap;html=1;strokeWidth=0;" parent="EK9v8JkH4PZetZc3i3iM-2" vertex="1">
          <mxGeometry x="2186" y="200" width="40" height="40" as="geometry" />
        </mxCell>
        <mxCell id="0hOKsh7049nC19befjA3-4" value="" style="rounded=0;whiteSpace=wrap;html=1;fillColor=#f8cecc;strokeColor=#b85450;strokeWidth=0;" parent="EK9v8JkH4PZetZc3i3iM-2" vertex="1">
          <mxGeometry x="2186" y="160" width="80" height="80" as="geometry" />
        </mxCell>
        <mxCell id="0hOKsh7049nC19befjA3-7" value="402" style="rounded=0;whiteSpace=wrap;html=1;strokeWidth=0;fillColor=#FF0000;" parent="EK9v8JkH4PZetZc3i3iM-2" vertex="1">
          <mxGeometry x="2226" width="1" height="200" as="geometry" />
        </mxCell>
        <mxCell id="0hOKsh7049nC19befjA3-9" value="923" style="rounded=0;whiteSpace=wrap;html=1;strokeWidth=0;fillColor=#FF0000;strokeColor=#b85450;" parent="EK9v8JkH4PZetZc3i3iM-2" vertex="1">
          <mxGeometry x="2227" y="200" width="923" height="1" as="geometry" />
        </mxCell>
        <mxCell id="VPxmGFacgetjMYWHdtx3-21" value="2297" style="rounded=0;whiteSpace=wrap;html=1;strokeWidth=0;fillColor=#FF0000;" parent="EK9v8JkH4PZetZc3i3iM-2" vertex="1">
          <mxGeometry x="489" y="202" width="1" height="2297" as="geometry" />
        </mxCell>
        <mxCell id="VPxmGFacgetjMYWHdtx3-4" value="вытяжка" parent="0" />
        <mxCell id="VPxmGFacgetjMYWHdtx3-3" value="" style="rounded=0;whiteSpace=wrap;html=1;strokeWidth=0;fillColor=#e1d5e7;strokeColor=#9673a6;deletable=0;rotatable=0;movable=0;resizable=0;" parent="VPxmGFacgetjMYWHdtx3-4" vertex="1">
          <mxGeometry x="1570" y="130" width="130" height="160" as="geometry" />
        </mxCell>
        <mxCell id="VPxmGFacgetjMYWHdtx3-9" value="2716" style="rounded=0;whiteSpace=wrap;html=1;strokeWidth=0;fillColor=#FF0000;" parent="VPxmGFacgetjMYWHdtx3-4" vertex="1">
          <mxGeometry x="434" y="1696" width="2716" height="1" as="geometry" />
        </mxCell>
        <mxCell id="VPxmGFacgetjMYWHdtx3-10" value="2700" style="rounded=0;whiteSpace=wrap;html=1;strokeWidth=0;fillColor=#FF0000;" parent="VPxmGFacgetjMYWHdtx3-4" vertex="1">
          <mxGeometry x="450" y="1582" width="2700" height="1" as="geometry" />
        </mxCell>
        <mxCell id="rTMTSSueP036_edtJL5N-3" value="котел старый" parent="0" />
        <mxCell id="rTMTSSueP036_edtJL5N-6" value="159" style="rounded=0;whiteSpace=wrap;html=1;strokeWidth=0;fillColor=#FF0000;" parent="rTMTSSueP036_edtJL5N-3" vertex="1">
          <mxGeometry x="2205" y="2340" width="1" height="159" as="geometry" />
        </mxCell>
      </root>
    </mxGraphModel>
  </diagram>
  <diagram id="MCvRF2MGLXskAfKhxcWS" name="right">
    <mxGraphModel dx="3691" dy="2320" grid="1" gridSize="1" guides="1" tooltips="1" connect="1" arrows="1" fold="1" page="1" pageScale="1" pageWidth="1942" pageHeight="2499" math="0" shadow="0">
      <root>
        <mxCell id="0" />
        <mxCell id="1" parent="0" />
        <mxCell id="Xa1f5CfI5zwSuXjqm02R-3" value="" style="rounded=0;whiteSpace=wrap;html=1;strokeWidth=0;fillColor=none;movable=0;resizable=0;cloneable=0;rotatable=0;deletable=0;" parent="1" vertex="1">
          <mxGeometry width="1942" height="2499" as="geometry" />
        </mxCell>
        <mxCell id="Xa1f5CfI5zwSuXjqm02R-2" value="нижний ряд" parent="0" />
        <mxCell id="Xa1f5CfI5zwSuXjqm02R-5" value="" style="group" parent="Xa1f5CfI5zwSuXjqm02R-2" vertex="1" connectable="0">
          <mxGeometry y="1628" width="1000" height="768" as="geometry" />
        </mxCell>
        <mxCell id="Xa1f5CfI5zwSuXjqm02R-1" value="" style="rounded=0;whiteSpace=wrap;html=1;strokeWidth=0;fillColor=#d5e8d4;strokeColor=#82b366;" parent="Xa1f5CfI5zwSuXjqm02R-5" vertex="1">
          <mxGeometry width="1000" height="768" as="geometry" />
        </mxCell>
        <mxCell id="Xa1f5CfI5zwSuXjqm02R-4" value="" style="rounded=0;whiteSpace=wrap;html=1;strokeWidth=0;fillColor=default;" parent="Xa1f5CfI5zwSuXjqm02R-5" vertex="1">
          <mxGeometry x="16" width="968" height="752" as="geometry" />
        </mxCell>
        <mxCell id="n3GkHVR-IOlGxmIleW0b-3" value="" style="rounded=0;whiteSpace=wrap;html=1;strokeColor=#82b366;fillColor=#d5e8d4;strokeWidth=0;" parent="Xa1f5CfI5zwSuXjqm02R-2" vertex="1">
          <mxGeometry y="276" width="800" height="768" as="geometry" />
        </mxCell>
        <mxCell id="Xa1f5CfI5zwSuXjqm02R-11" value="" style="group" parent="Xa1f5CfI5zwSuXjqm02R-2" vertex="1" connectable="0">
          <mxGeometry x="1000" y="1628" width="150" height="768" as="geometry" />
        </mxCell>
        <mxCell id="Xa1f5CfI5zwSuXjqm02R-9" value="" style="rounded=0;whiteSpace=wrap;html=1;strokeWidth=0;fillColor=#d5e8d4;strokeColor=#82b366;" parent="Xa1f5CfI5zwSuXjqm02R-11" vertex="1">
          <mxGeometry width="150" height="768" as="geometry" />
        </mxCell>
        <mxCell id="Xa1f5CfI5zwSuXjqm02R-10" value="" style="rounded=0;whiteSpace=wrap;html=1;strokeWidth=0;" parent="Xa1f5CfI5zwSuXjqm02R-11" vertex="1">
          <mxGeometry x="16" width="118" height="752" as="geometry" />
        </mxCell>
        <mxCell id="Xa1f5CfI5zwSuXjqm02R-14" value="" style="group" parent="Xa1f5CfI5zwSuXjqm02R-2" vertex="1" connectable="0">
          <mxGeometry x="1150" y="1628" width="600" height="768" as="geometry" />
        </mxCell>
        <mxCell id="Xa1f5CfI5zwSuXjqm02R-12" value="" style="rounded=0;whiteSpace=wrap;html=1;strokeWidth=0;fillColor=#d5e8d4;strokeColor=#82b366;" parent="Xa1f5CfI5zwSuXjqm02R-14" vertex="1">
          <mxGeometry width="600" height="768" as="geometry" />
        </mxCell>
        <mxCell id="Xa1f5CfI5zwSuXjqm02R-13" value="" style="rounded=0;whiteSpace=wrap;html=1;strokeWidth=0;" parent="Xa1f5CfI5zwSuXjqm02R-14" vertex="1">
          <mxGeometry x="16" width="568" height="752" as="geometry" />
        </mxCell>
        <mxCell id="Xa1f5CfI5zwSuXjqm02R-18" value="" style="group" parent="Xa1f5CfI5zwSuXjqm02R-2" vertex="1" connectable="0">
          <mxGeometry x="1750" y="1731" width="150" height="768" as="geometry" />
        </mxCell>
        <mxCell id="Xa1f5CfI5zwSuXjqm02R-19" value="" style="rounded=0;whiteSpace=wrap;html=1;strokeWidth=0;fillColor=#d5e8d4;strokeColor=#82b366;" parent="Xa1f5CfI5zwSuXjqm02R-18" vertex="1">
          <mxGeometry y="-103" width="150" height="768" as="geometry" />
        </mxCell>
        <mxCell id="Xa1f5CfI5zwSuXjqm02R-20" value="" style="rounded=0;whiteSpace=wrap;html=1;strokeWidth=0;" parent="Xa1f5CfI5zwSuXjqm02R-18" vertex="1">
          <mxGeometry x="16" y="-103" width="118" height="752" as="geometry" />
        </mxCell>
        <mxCell id="Xa1f5CfI5zwSuXjqm02R-21" value="" style="rounded=0;whiteSpace=wrap;html=1;strokeWidth=0;" parent="Xa1f5CfI5zwSuXjqm02R-2" vertex="1">
          <mxGeometry x="1900" y="1628" width="16" height="768" as="geometry" />
        </mxCell>
        <mxCell id="Xa1f5CfI5zwSuXjqm02R-22" value="" style="rounded=0;whiteSpace=wrap;html=1;strokeWidth=0;" parent="Xa1f5CfI5zwSuXjqm02R-2" vertex="1">
          <mxGeometry y="2396" width="1942" height="100" as="geometry" />
        </mxCell>
        <mxCell id="Xa1f5CfI5zwSuXjqm02R-23" value="" style="rounded=0;whiteSpace=wrap;html=1;strokeWidth=0;fillColor=#4D4D4D;" parent="Xa1f5CfI5zwSuXjqm02R-2" vertex="1">
          <mxGeometry y="2496" width="1942" height="3" as="geometry" />
        </mxCell>
        <mxCell id="H6eVLfdbJI4pUoHqTO-i-1" value="" style="rounded=0;whiteSpace=wrap;html=1;strokeWidth=0;fillColor=#8C4800;strokeColor=#d79b00;" parent="Xa1f5CfI5zwSuXjqm02R-2" vertex="1">
          <mxGeometry y="1590" width="1916" height="38" as="geometry" />
        </mxCell>
        <mxCell id="G7GyN-0zBQfFBoRQjGYE-1" value="" style="group" parent="Xa1f5CfI5zwSuXjqm02R-2" vertex="1" connectable="0">
          <mxGeometry x="1100" y="20" width="800" height="256" as="geometry" />
        </mxCell>
        <mxCell id="G7GyN-0zBQfFBoRQjGYE-2" value="" style="rounded=0;whiteSpace=wrap;html=1;strokeWidth=0;fillColor=#d5e8d4;strokeColor=#82b366;" parent="G7GyN-0zBQfFBoRQjGYE-1" vertex="1">
          <mxGeometry width="800" height="256" as="geometry" />
        </mxCell>
        <mxCell id="G7GyN-0zBQfFBoRQjGYE-3" value="" style="rounded=0;whiteSpace=wrap;html=1;strokeWidth=0;" parent="G7GyN-0zBQfFBoRQjGYE-1" vertex="1">
          <mxGeometry x="16" y="16" width="768" height="224" as="geometry" />
        </mxCell>
        <mxCell id="G7GyN-0zBQfFBoRQjGYE-7" value="" style="group" parent="Xa1f5CfI5zwSuXjqm02R-2" vertex="1" connectable="0">
          <mxGeometry x="300" y="20" width="800" height="256" as="geometry" />
        </mxCell>
        <mxCell id="G7GyN-0zBQfFBoRQjGYE-8" value="" style="rounded=0;whiteSpace=wrap;html=1;strokeWidth=0;fillColor=#d5e8d4;strokeColor=#82b366;" parent="G7GyN-0zBQfFBoRQjGYE-7" vertex="1">
          <mxGeometry width="800" height="256" as="geometry" />
        </mxCell>
        <mxCell id="G7GyN-0zBQfFBoRQjGYE-9" value="" style="rounded=0;whiteSpace=wrap;html=1;strokeWidth=0;" parent="G7GyN-0zBQfFBoRQjGYE-7" vertex="1">
          <mxGeometry x="16" y="16" width="768" height="224" as="geometry" />
        </mxCell>
        <mxCell id="G7GyN-0zBQfFBoRQjGYE-10" value="" style="rounded=0;whiteSpace=wrap;html=1;strokeWidth=0;fillColor=#d5e8d4;strokeColor=#82b366;" parent="Xa1f5CfI5zwSuXjqm02R-2" vertex="1">
          <mxGeometry y="20" width="300" height="256" as="geometry" />
        </mxCell>
        <mxCell id="G7GyN-0zBQfFBoRQjGYE-11" value="" style="rounded=0;whiteSpace=wrap;html=1;strokeWidth=0;" parent="Xa1f5CfI5zwSuXjqm02R-2" vertex="1">
          <mxGeometry x="1900" y="20" width="16" height="256" as="geometry" />
        </mxCell>
        <mxCell id="eFzxyeeRAb6IG0GMO3mo-1" value="" style="group" parent="Xa1f5CfI5zwSuXjqm02R-2" vertex="1" connectable="0">
          <mxGeometry x="1600" y="276" width="300" height="768" as="geometry" />
        </mxCell>
        <mxCell id="eFzxyeeRAb6IG0GMO3mo-2" value="" style="rounded=0;whiteSpace=wrap;html=1;strokeColor=#82b366;strokeWidth=0;fillColor=#d5e8d4;" parent="eFzxyeeRAb6IG0GMO3mo-1" vertex="1">
          <mxGeometry width="300" height="768" as="geometry" />
        </mxCell>
        <mxCell id="eFzxyeeRAb6IG0GMO3mo-3" value="" style="rounded=0;whiteSpace=wrap;html=1;strokeWidth=0;" parent="eFzxyeeRAb6IG0GMO3mo-1" vertex="1">
          <mxGeometry x="16" y="16" width="268" height="736" as="geometry" />
        </mxCell>
        <mxCell id="eFzxyeeRAb6IG0GMO3mo-4" value="" style="rounded=0;whiteSpace=wrap;html=1;strokeWidth=0;" parent="Xa1f5CfI5zwSuXjqm02R-2" vertex="1">
          <mxGeometry x="1900" y="276" width="16" height="768" as="geometry" />
        </mxCell>
        <mxCell id="n3GkHVR-IOlGxmIleW0b-1" value="" style="rounded=0;whiteSpace=wrap;html=1;strokeColor=#82b366;fillColor=#d5e8d4;strokeWidth=0;" parent="Xa1f5CfI5zwSuXjqm02R-2" vertex="1">
          <mxGeometry x="800" y="276" width="800" height="768" as="geometry" />
        </mxCell>
        <mxCell id="n3GkHVR-IOlGxmIleW0b-2" value="" style="rounded=0;whiteSpace=wrap;html=1;fillColor=default;strokeColor=none;" parent="Xa1f5CfI5zwSuXjqm02R-2" vertex="1">
          <mxGeometry x="816.0033333333333" y="292" width="768" height="736" as="geometry" />
        </mxCell>
        <mxCell id="n3GkHVR-IOlGxmIleW0b-4" value="" style="rounded=0;whiteSpace=wrap;html=1;fillColor=default;strokeColor=none;" parent="Xa1f5CfI5zwSuXjqm02R-2" vertex="1">
          <mxGeometry x="16.00333333333333" y="292" width="768" height="736" as="geometry" />
        </mxCell>
        <mxCell id="q9hbv-4CA7zz1JpfFjKB-1" value="" style="rounded=0;whiteSpace=wrap;html=1;strokeWidth=0;fillColor=#d5e8d4;strokeColor=#82b366;" parent="Xa1f5CfI5zwSuXjqm02R-2" vertex="1">
          <mxGeometry y="276" width="350" height="768" as="geometry" />
        </mxCell>
        <mxCell id="DMHSNuHrphybS5YOjyPj-2" value="электрика" parent="0" />
        <mxCell id="DMHSNuHrphybS5YOjyPj-1" value="" style="rounded=0;whiteSpace=wrap;html=1;strokeWidth=0;fillColor=#f8cecc;strokeColor=#b85450;resizable=0;movable=0;deletable=0;editable=1;rotatable=1;locked=0;connectable=1;" parent="DMHSNuHrphybS5YOjyPj-2" vertex="1">
          <mxGeometry x="1546" y="1410" width="220" height="80" as="geometry" />
        </mxCell>
        <mxCell id="DMHSNuHrphybS5YOjyPj-4" value="" style="rounded=0;whiteSpace=wrap;html=1;fillColor=#f8cecc;strokeColor=#b85450;strokeWidth=0;resizable=1;rotatable=0;movable=0;" parent="DMHSNuHrphybS5YOjyPj-2" vertex="1">
          <mxGeometry x="894" y="1638" width="80" height="150" as="geometry" />
        </mxCell>
        <mxCell id="7zORCNu_Hi94F8vTt5uU-1" value="934" style="rounded=0;whiteSpace=wrap;html=1;strokeWidth=0;fillColor=#FF0000;" vertex="1" parent="DMHSNuHrphybS5YOjyPj-2">
          <mxGeometry y="1712" width="934" height="1" as="geometry" />
        </mxCell>
        <mxCell id="7zORCNu_Hi94F8vTt5uU-2" value="786" style="rounded=0;whiteSpace=wrap;html=1;strokeWidth=0;fillColor=#FF0000;" vertex="1" parent="DMHSNuHrphybS5YOjyPj-2">
          <mxGeometry x="934" y="1713" width="1" height="786" as="geometry" />
        </mxCell>
        <mxCell id="7zORCNu_Hi94F8vTt5uU-4" value="1656" style="rounded=0;whiteSpace=wrap;html=1;strokeWidth=0;fillColor=#FF0000;" vertex="1" parent="DMHSNuHrphybS5YOjyPj-2">
          <mxGeometry y="1449" width="1656" height="1" as="geometry" />
        </mxCell>
        <mxCell id="7zORCNu_Hi94F8vTt5uU-5" value="1049" style="rounded=0;whiteSpace=wrap;html=1;strokeWidth=0;fillColor=#FF0000;" vertex="1" parent="DMHSNuHrphybS5YOjyPj-2">
          <mxGeometry x="1656" y="1450" width="1" height="1049" as="geometry" />
        </mxCell>
      </root>
    </mxGraphModel>
  </diagram>
</mxfile>
